{"title":"The Angels Share (2012) DVDRip XviD AC3 peaSoup","uid":8891560,"size":1361437589,"categoryP":"video","categoryS":"movies","magnet":"?xt=urn:btih:06ee643d7247e4dce263209a83d7fa007734d817&amp;dn=The+Angels+Share+%282012%29+DVDRip+XviD+AC3+peaSoup&amp;tr=udp%3A%2F%2Ftracker.openbittorrent.com%3A80&amp;tr=udp%3A%2F%2Fopen.demonii.com%3A1337&amp;tr=udp%3A%2F%2Ftracker.coppersurfer.tk%3A6969&amp;tr=udp%3A%2F%2Fexodus.desync.com%3A6969","seeders":4,"leechers":1,"uploader":"peaSoup","files":-1,"time":1378593323,"description":"Storyline\n\nThis bitter sweet comedy follows protagonist Robbie as he sneaks into the maternity hospital to visit his young girlfriend Leonie and hold his newborn son Luke for the first time. Overwhelmed by the moment, he swears that Luke will not have the same tragic life he has had. Escaping a prison sentence by the skin of his teeth, he's given one last chance......While serving a community service order, he meets Rhino, Albert and Mo who, like him, find it impossible to find work because of their criminal records. Little did Robbie imagine how turning to drink might change their lives - not cheap fortified wine, but the best malt whiskies in the world. Will it be 'slopping out' for the next twenty years, or a new future with 'Uisge Beatha' the 'Water of Life?' Only the angels know........                                       &lt;a href=&quot; http://imageshack.us/a/img560/3348/fyhs.jpg&quot; rel=&quot;nofollow&quot; target=&quot;_NEW&quot;&gt; http://imageshack.us/a/img560/3348/fyhs.jpg&lt;/a&gt;                                         &lt;a href=&quot; http://imageshack.us/a/img31/1588/03m7.jpg&quot; rel=&quot;nofollow&quot; target=&quot;_NEW&quot;&gt; http://imageshack.us/a/img31/1588/03m7.jpg&lt;/a&gt;                                          &lt;a href=&quot; http://imageshack.us/a/img89/244/3iwt.jpg&quot; rel=&quot;nofollow&quot; target=&quot;_NEW&quot;&gt; http://imageshack.us/a/img89/244/3iwt.jpg&lt;/a&gt;                                           &lt;a href=&quot; http://imageshack.us/a/img819/9248/8zl3.jpg&quot; rel=&quot;nofollow&quot; target=&quot;_NEW&quot;&gt; http://imageshack.us/a/img819/9248/8zl3.jpg&lt;/a&gt;                                         &lt;a href=&quot; http://imageshack.us/a/img534/2023/uq1m.jpg&quot; rel=&quot;nofollow&quot; target=&quot;_NEW&quot;&gt; http://imageshack.us/a/img534/2023/uq1m.jpg&lt;/a&gt;                                          Format                                   : AVI\nFormat/Info                              : Audio Video Interleave\nFormat profile                           : OpenDML\nFile size                                : 1.26 GiB\nDuration                                 : 1h 36mn\nOverall bit rate                         : 1 863 Kbps\nMovie name                               : The Angels' Share (2012) DVDRip XviD AC3 peaSoup\nWriting application                      : Lavf53.21.0\nOriginal source form/Name                : EO51581\n\nVideo\nID                                       : 0\nFormat                                   : MPEG-4 Visual\nFormat profile                           : Advanced Simple@L5\nFormat settings, BVOP                    : 2\nFormat settings, QPel                    : No\nFormat settings, GMC                     : No warppoints\nFormat settings, Matrix                  : Default (H.263)\nMuxing mode                              : Packed bitstream\nCodec ID                                 : XVID\nCodec ID/Hint                            : XviD\nDuration                                 : 1h 36mn\nBit rate                                 : 1 403 Kbps\nWidth                                    : 720 pixels\nHeight                                   : 390 pixels\nDisplay aspect ratio                     : 1.85:1\nFrame rate                               : 25.000 fps\nColor space                              : YUV\nChroma subsampling                       : 4:2:0\nBit depth                                : 8 bits\nScan type                                : Progressive\nCompression mode                         : Lossy\nBits/(Pixel*Frame)                       : 0.200\nStream size                              : 973 MiB (75%)\nWriting library                          : XviD 1.2.1 (UTC 2008-12-04)\n\nAudio\nID                                       : 1\nFormat                                   : AC-3\nFormat/Info                              : Audio Coding 3\nMode extension                           : CM (complete main)\nFormat settings, Endianness              : Big\nCodec ID                                 : 2000\nDuration                                 : 1h 36mn\nBit rate mode                            : Constant\nBit rate                                 : 448 Kbps\nChannel(s)                               : 6 channels\nChannel positions                        : Front: L C R, Side: L R, LFE\nSampling rate                            : 48.0 KHz\nBit depth                                : 16 bits\nCompression mode                         : Lossy\nStream size                              : 310 MiB (24%)\nAlignment                                : Aligned on interleaves\nInterleave, duration                     : 32 ms (0.80 video frame)\n\n","torrent":{"xt":"urn:btih:06ee643d7247e4dce263209a83d7fa007734d817","amp;dn":"The+Angels+Share+%282012%29+DVDRip+XviD+AC3+peaSoup","amp;tr":["udp%3A%2F%2Ftracker.openbittorrent.com%3A80","udp%3A%2F%2Fopen.demonii.com%3A1337","udp%3A%2F%2Ftracker.coppersurfer.tk%3A6969","udp%3A%2F%2Fexodus.desync.com%3A6969"],"infoHash":"06ee643d7247e4dce263209a83d7fa007734d817","infoHashBuffer":{"type":"Buffer","data":[6,238,100,61,114,71,228,220,226,99,32,154,131,215,250,0,119,52,216,23]},"announce":[],"urlList":[]}}